<?xml version="1.0" encoding="UTF-8"?>
<!DOCTYPE svg PUBLIC "-//W3C//DTD SVG 1.1//EN" "http://www.w3.org/Graphics/SVG/1.1/DTD/svg11.dtd">
<!-- Creator: CorelDRAW X6 -->
<svg xmlns="http://www.w3.org/2000/svg" xml:space="preserve" width="24.8518mm" height="35.043mm" version="1.1" style="shape-rendering:geometricPrecision; text-rendering:geometricPrecision; image-rendering:optimizeQuality; fill-rule:evenodd; clip-rule:evenodd"
viewBox="0 0 498 703"
 xmlns:xlink="http://www.w3.org/1999/xlink">
 <defs>
  <style type="text/css">
   <![CDATA[
    .fil2 {fill:#5B5B5B}
    .fil3 {fill:#898989}
    .fil1 {fill:#B6D2DC}
    .fil4 {fill:#DB751C}
    .fil0 {fill:#DBEFEF}
    .fil5 {fill:#F5AE16}
   ]]>
  </style>
 </defs>
 <g id="Layer_x0020_1">
  <metadata id="CorelCorpID_0Corel-Layer"/>
  <g id="_902329264">
   <polygon class="fil0" points="0,0 2,2 395,508 368,527 "/>
   <polygon class="fil1" points="0,0 1,2 342,545 369,526 "/>
   <path class="fil2" d="M369 536c0,2 2,15 33,56 10,13 69,80 72,99 1,7 -2,13 5,12 7,0 12,-3 12,-3l-117 -167 -5 4z"/>
   <path class="fil3" d="M379 529c2,0 14,7 41,50 9,14 52,92 68,101 6,4 12,3 10,9 -3,6 -7,10 -7,10l-117 -168 6 -3z"/>
   <path class="fil4" d="M300 536c-5,13 7,28 24,25 17,-3 27,-22 40,-23 3,0 15,1 15,1l-24 -34c0,0 5,13 -1,20 -19,19 -32,26 -53,12z"/>
   <path class="fil5" d="M402 464c13,0 24,16 16,31 -9,15 -30,18 -36,30 -1,3 -5,14 -5,14l-24 -34c0,0 10,10 19,5 24,-12 36,-21 29,-46z"/>
  </g>
  <g id="_902330128">
   <polygon class="fil0" points="498,0 496,2 103,508 130,527 "/>
   <polygon class="fil1" points="498,0 497,2 156,545 129,526 "/>
   <path class="fil2" d="M130 536c0,2 -2,15 -33,56 -10,13 -69,80 -72,99 -1,7 2,13 -5,12 -7,0 -12,-3 -12,-3l117 -167 5 4z"/>
   <path class="fil3" d="M119 529c-2,0 -14,7 -41,50 -9,14 -52,92 -68,101 -6,4 -12,3 -10,9 3,6 7,10 7,10l117 -168 -6 -3z"/>
   <path class="fil4" d="M199 536c5,13 -7,28 -24,25 -17,-3 -27,-22 -40,-23 -3,0 -15,1 -15,1l24 -34c0,0 -5,13 1,20 19,19 32,26 53,12z"/>
   <path class="fil5" d="M96 464c-13,0 -24,16 -16,31 9,15 30,18 36,30 1,3 5,14 5,14l24 -34c0,0 -10,10 -19,5 -24,-12 -36,-21 -29,-46z"/>
  </g>
 </g>
</svg>
